<svg xmlns="http://www.w3.org/2000/svg" xmlns:xlink="http://www.w3.org/1999/xlink" width="500" zoomAndPan="magnify" viewBox="0 0 375 374.999991" height="500" preserveAspectRatio="xMidYMid meet" version="1.0"><defs><clipPath id="1eaeaf2b15"><path d="M 114.042969 119 L 261.039062 119 L 261.039062 324.011719 L 114.042969 324.011719 Z M 114.042969 119 " clip-rule="nonzero"/></clipPath><clipPath id="ee39322059"><path d="M 114.042969 51.011719 L 261.039062 51.011719 L 261.039062 130 L 114.042969 130 Z M 114.042969 51.011719 " clip-rule="nonzero"/></clipPath></defs><g clip-path="url(#1eaeaf2b15)"><path fill="#104378" d="M 251.921875 129.035156 L 123.160156 129.035156 L 123.160156 314.894531 L 251.921875 314.894531 Z M 118.601562 119.921875 L 261.039062 119.921875 L 261.039062 324.007812 L 114.042969 324.007812 L 114.042969 119.921875 Z M 118.601562 119.921875 " fill-opacity="1" fill-rule="nonzero"/></g><g clip-path="url(#ee39322059)"><path fill="#104378" d="M 239.449219 72.589844 C 252.769531 85.902344 261.039062 104.269531 261.039062 124.476562 L 261.039062 129.035156 L 114.042969 129.035156 L 114.042969 124.476562 C 114.042969 104.269531 122.3125 85.902344 135.628906 72.589844 C 148.949219 59.277344 167.324219 51.011719 187.539062 51.011719 C 207.757812 51.011719 226.132812 59.273438 239.449219 72.589844 M 251.761719 119.921875 C 250.632812 104.035156 243.667969 89.6875 233.007812 79.03125 C 221.335938 67.367188 205.242188 60.125 187.542969 60.125 C 169.839844 60.125 153.746094 67.367188 142.074219 79.03125 C 131.414062 89.6875 124.449219 104.035156 123.320312 119.921875 Z M 251.761719 119.921875 " fill-opacity="1" fill-rule="nonzero"/></g><path fill="#104378" d="M 182.984375 55.710938 L 192.101562 55.710938 L 192.101562 129.035156 L 182.984375 129.035156 Z M 182.984375 55.710938 " fill-opacity="1" fill-rule="evenodd"/><path fill="#104378" d="M 190.742188 127.734375 L 184.347656 121.347656 L 235.777344 69.945312 L 242.167969 76.332031 Z M 190.742188 127.734375 " fill-opacity="1" fill-rule="evenodd"/><path fill="#104378" d="M 190.738281 121.347656 L 184.347656 127.738281 L 132.917969 76.335938 L 139.3125 69.945312 Z M 190.738281 121.347656 " fill-opacity="1" fill-rule="evenodd"/><path fill="#104378" d="M 204.351562 193.203125 C 204.351562 186.113281 204.351562 179.027344 204.351562 171.9375 C 204.351562 164.851562 204.351562 157.765625 204.351562 150.660156 C 199.53125 151.652344 194.828125 152.625 190.277344 153.5625 C 185.84375 154.476562 181.511719 155.371094 177.308594 156.238281 C 177.308594 162.785156 177.308594 169.320312 177.308594 175.851562 C 177.308594 182.386719 177.308594 188.917969 177.308594 195.453125 C 181.511719 195.101562 185.84375 194.742188 190.277344 194.371094 C 194.828125 193.996094 199.53125 193.605469 204.351562 193.203125 M 204.351562 244.984375 C 204.351562 237.320312 204.351562 229.660156 204.351562 221.996094 C 204.351562 214.335938 204.351562 206.671875 204.351562 198.996094 C 199.53125 199.316406 194.828125 199.628906 190.277344 199.929688 C 185.84375 200.226562 181.511719 200.511719 177.308594 200.789062 C 177.308594 207.871094 177.308594 214.933594 177.308594 221.996094 C 177.308594 229.058594 177.308594 236.121094 177.308594 243.183594 C 181.511719 243.464844 185.84375 243.753906 190.269531 244.046875 C 194.828125 244.351562 199.53125 244.664062 204.351562 244.984375 Z M 204.351562 293.320312 C 204.351562 286.230469 204.351562 279.144531 204.351562 272.054688 C 204.351562 264.96875 204.351562 257.878906 204.351562 250.777344 C 199.53125 250.375 194.828125 249.984375 190.269531 249.601562 C 185.84375 249.234375 181.511719 248.871094 177.308594 248.519531 C 177.308594 255.070312 177.300781 261.601562 177.300781 268.140625 C 177.300781 274.671875 177.300781 281.203125 177.300781 287.738281 C 181.503906 288.605469 185.835938 289.5 190.269531 290.414062 C 194.828125 291.355469 199.53125 292.324219 204.351562 293.320312 Z M 208.316406 251.109375 C 208.316406 258.292969 208.316406 265.460938 208.316406 272.628906 C 208.316406 279.800781 208.316406 286.96875 208.316406 294.140625 C 213.394531 295.183594 218.625 296.265625 223.996094 297.375 C 229.535156 298.519531 235.265625 299.699219 241.160156 300.914062 C 241.160156 293.070312 241.160156 285.230469 241.160156 277.390625 C 241.160156 269.542969 241.160156 261.703125 241.160156 253.84375 C 235.257812 253.351562 229.535156 252.875 223.996094 252.414062 C 218.625 251.96875 213.394531 251.53125 208.316406 251.109375 Z M 208.316406 198.730469 C 208.316406 206.5 208.316406 214.25 208.316406 222 C 208.316406 229.75 208.316406 237.496094 208.316406 245.246094 C 213.394531 245.585938 218.625 245.9375 223.996094 246.292969 C 229.535156 246.660156 235.257812 247.042969 241.160156 247.433594 C 241.160156 238.957031 241.15625 230.480469 241.152344 222 C 241.148438 213.527344 241.152344 205.046875 241.152344 196.550781 C 235.257812 196.945312 229.535156 197.324219 223.996094 197.691406 C 218.625 198.046875 213.394531 198.394531 208.316406 198.730469 Z M 208.316406 149.839844 C 208.316406 157.027344 208.316406 164.195312 208.316406 171.367188 C 208.316406 178.535156 208.316406 185.703125 208.316406 192.875 C 213.394531 192.453125 218.625 192.015625 223.996094 191.570312 C 229.535156 191.109375 235.257812 190.632812 241.152344 190.144531 C 241.152344 182.300781 241.152344 174.457031 241.152344 166.617188 C 241.152344 158.773438 241.152344 150.929688 241.152344 143.070312 C 235.257812 144.285156 229.535156 145.46875 223.996094 146.609375 C 218.625 147.714844 213.394531 148.796875 208.316406 149.839844 Z M 204.351562 139.929688 C 205.664062 139.617188 206.992188 139.304688 208.316406 138.988281 C 214.679688 137.476562 221.269531 135.914062 228.113281 134.292969 C 235.210938 132.609375 242.597656 130.855469 250.28125 129.035156 C 250.28125 139.109375 250.28125 149.164062 250.28125 159.21875 C 250.28125 169.273438 250.28125 179.328125 250.28125 189.382812 C 250.28125 191.578125 250.28125 193.769531 250.28125 195.945312 C 250.28125 204.644531 250.28125 213.324219 250.28125 222.003906 C 250.28125 230.683594 250.28125 239.359375 250.28125 248.039062 C 250.28125 250.234375 250.28125 252.429688 250.28125 254.601562 C 250.28125 264.660156 250.28125 274.730469 250.28125 284.765625 C 250.28125 294.804688 250.28125 304.878906 250.28125 314.894531 C 242.605469 313.078125 235.21875 311.324219 228.113281 309.636719 C 221.269531 308.015625 214.679688 306.453125 208.316406 304.941406 C 206.984375 304.625 205.65625 304.3125 204.351562 304 C 198.355469 302.578125 192.554688 301.203125 186.964844 299.875 C 181.554688 298.59375 176.3125 297.347656 171.257812 296.144531 C 171.257812 288.152344 171.257812 280.109375 171.257812 272.097656 C 171.257812 264.085938 171.257812 256.042969 171.257812 248.015625 C 171.257812 246.28125 171.257812 244.53125 171.257812 242.78125 C 171.257812 235.851562 171.257812 228.921875 171.257812 221.996094 C 171.257812 215.066406 171.257812 208.136719 171.257812 201.195312 C 171.257812 199.460938 171.257812 197.707031 171.257812 195.957031 C 171.257812 187.933594 171.257812 179.902344 171.257812 171.878906 C 171.257812 163.851562 171.257812 155.824219 171.257812 147.785156 C 176.320312 146.582031 181.558594 145.339844 186.964844 144.054688 C 192.554688 142.726562 198.351562 141.351562 204.351562 139.929688 Z M 204.351562 139.929688 " fill-opacity="1" fill-rule="evenodd"/><path fill="#104378" d="M 249.3125 216.945312 L 253.015625 216.945312 L 253.015625 226.984375 L 249.3125 226.984375 Z M 249.3125 216.945312 " fill-opacity="1" fill-rule="evenodd"/><path fill="#104378" d="M 249.3125 141.894531 L 253.015625 141.894531 L 253.015625 151.933594 L 249.3125 151.933594 Z M 249.3125 141.894531 " fill-opacity="1" fill-rule="evenodd"/><path fill="#104378" d="M 249.3125 291.996094 L 253.015625 291.996094 L 253.015625 302.035156 L 249.3125 302.035156 Z M 249.3125 291.996094 " fill-opacity="1" fill-rule="evenodd"/><path fill="#104378" d="M 215.40625 133.113281 L 127.238281 133.113281 L 127.238281 310.816406 L 215.40625 310.816406 C 212.730469 310.183594 210.054688 309.546875 207.378906 308.910156 C 206.054688 308.597656 204.730469 308.28125 203.40625 307.96875 C 197.613281 306.59375 191.820312 305.21875 186.023438 303.84375 C 180.785156 302.601562 175.550781 301.359375 170.3125 300.117188 L 167.175781 299.371094 L 167.175781 296.144531 C 167.175781 288.128906 167.175781 280.113281 167.175781 272.097656 C 167.175781 264.070312 167.175781 256.042969 167.175781 248.015625 C 167.175781 246.273438 167.175781 244.527344 167.175781 242.78125 C 167.175781 235.851562 167.175781 228.925781 167.175781 221.996094 C 167.175781 215.0625 167.175781 208.128906 167.175781 201.195312 C 167.175781 199.449219 167.175781 197.703125 167.175781 195.957031 C 167.175781 187.933594 167.175781 179.90625 167.175781 171.878906 C 167.175781 163.847656 167.175781 155.816406 167.175781 147.785156 L 167.175781 144.558594 L 170.3125 143.816406 C 175.550781 142.574219 180.785156 141.328125 186.023438 140.085938 C 191.820312 138.710938 197.613281 137.335938 203.410156 135.960938 C 204.734375 135.648438 206.054688 135.332031 207.375 135.019531 C 210.050781 134.382812 212.730469 133.75 215.40625 133.113281 " fill-opacity="1" fill-rule="evenodd"/></svg>