<svg xmlns="http://www.w3.org/2000/svg" xmlns:xlink="http://www.w3.org/1999/xlink" width="500" zoomAndPan="magnify" viewBox="0 0 375 374.999991" height="500" preserveAspectRatio="xMidYMid meet" version="1.0"><defs><clipPath id="632e845ad7"><path d="M 36.328125 74.5 L 328 74.5 L 328 271 L 36.328125 271 Z M 36.328125 74.5 " clip-rule="nonzero"/></clipPath><clipPath id="75ca0f7e8a"><path d="M 126 119 L 338.578125 119 L 338.578125 300.25 L 126 300.25 Z M 126 119 " clip-rule="nonzero"/></clipPath></defs><g clip-path="url(#632e845ad7)"><path fill="#38b6ff" d="M 266.253906 119.238281 C 283.480469 131.539062 294.703125 151.695312 294.703125 174.46875 C 294.703125 193.269531 287.054688 210.28125 274.695312 222.570312 L 297.554688 245.976562 C 316 227.75 327.425781 202.449219 327.425781 174.46875 C 327.425781 154.066406 321.347656 135.085938 310.910156 119.238281 C 308.15625 115.058594 305.105469 111.105469 301.777344 107.394531 C 285.667969 89.410156 263.175781 77.265625 237.855469 74.523438 L 36.328125 74.523438 L 36.328125 107.394531 L 76.601562 107.394531 L 76.601562 270.265625 L 112.140625 270.265625 L 112.140625 107.394531 L 236.941406 107.394531 C 247.753906 109 257.734375 113.15625 266.253906 119.238281 Z M 266.253906 119.238281 " fill-opacity="1" fill-rule="nonzero"/></g><g clip-path="url(#75ca0f7e8a)"><path fill="#38b6ff" d="M 309.144531 270.265625 L 291.121094 251.808594 L 268.148438 228.292969 C 258.707031 235.535156 247.296875 240.355469 234.863281 241.8125 C 232.25 242.117188 229.589844 242.277344 226.890625 242.277344 C 189.433594 242.277344 159.074219 211.917969 159.074219 174.460938 C 159.074219 171.21875 159.300781 168.027344 159.742188 164.910156 C 161.484375 152.535156 166.570312 141.238281 174.046875 131.957031 C 175.871094 129.695312 177.835938 127.554688 179.925781 125.539062 C 182.300781 123.261719 184.84375 121.148438 187.53125 119.234375 L 142.871094 119.234375 C 139.050781 125.023438 135.820312 131.238281 133.253906 137.789062 C 128.804688 149.148438 126.351562 161.519531 126.351562 174.460938 C 126.351562 219.320312 155.734375 257.320312 196.3125 270.265625 C 205.953125 273.339844 216.230469 275.003906 226.894531 275.003906 C 237.558594 275.003906 247.832031 273.339844 257.476562 270.265625 C 258.785156 269.847656 260.082031 269.40625 261.363281 268.9375 L 262.660156 270.265625 L 292.167969 300.472656 L 338.660156 300.472656 Z M 309.144531 270.265625 " fill-opacity="1" fill-rule="nonzero"/></g></svg>